<?xml version="1.0" encoding="UTF-8"?>
<!DOCTYPE svg PUBLIC "-//W3C//DTD SVG 1.1//EN" "http://www.w3.org/Graphics/SVG/1.1/DTD/svg11.dtd">
<!-- Creator: CorelDRAW Standard 2021 (64-Bit) -->
<svg xmlns="http://www.w3.org/2000/svg" xml:space="preserve" width="210mm" height="297mm" version="1.1" style="shape-rendering:geometricPrecision; text-rendering:geometricPrecision; image-rendering:optimizeQuality; fill-rule:evenodd; clip-rule:evenodd"
viewBox="0 0 21000 29700"
 xmlns:xlink="http://www.w3.org/1999/xlink"
 xmlns:xodm="http://www.corel.com/coreldraw/odm/2003">
 <defs>
  <style type="text/css">
   <![CDATA[
    .fil0 {fill:#171C61;fill-rule:nonzero}
    .fil1 {fill:#EA5514;fill-rule:nonzero}
   ]]>
  </style>
 </defs>
 <g id="图层_x0020_1">
  <metadata id="CorelCorpID_0Corel-Layer"/>
  <path class="fil0" d="M4420.28 4906.7c2.24,297.22 1.76,763.38 1.67,1060.62l574.32 0c-1.12,-298.55 -1.22,-766.03 0.42,-1064.58 0.17,-29.51 11.93,-63.76 28.34,-87.43 240.74,-347.14 754.39,-1166.03 815.97,-1292.21 -160.46,0.23 -453.35,0.9 -613.8,1.72 -23.45,0.13 -52.96,19.68 -69.2,38.98 -191.51,227.58 -433.45,715.05 -449.89,734.37 -61.65,-73.24 -469.21,-562.14 -613.42,-737.92 -22.49,-27.42 -46.82,-39.81 -82.65,-37.76 -92.67,5.26 -653.92,3.03 -685.47,5.08 25.3,33.04 728.11,881.31 1059.72,1283.6 20.42,24.76 33.74,63.28 33.99,95.53z"/>
  <path class="fil1" d="M8565.14 4084.13l0 -561.49c-343.69,0.25 -1327.06,0.22 -1635.83,-0.09l-81.31 561.65c91.08,0.12 614.31,-1.19 617.18,-0.76 0.49,2.87 10.85,1883.88 10.85,1883.88 0,0 413.59,-463.47 502.71,-560.49 34.94,-38.03 49.78,-74.39 49.66,-121.57 -0.56,-191.61 -1.23,-1199.65 -0.98,-1202.1 2.06,-0.15 448.21,0.95 537.72,0.97z"/>
  <path class="fil0" d="M9970.62 5294.75c-37.31,142.98 -139.6,226.24 -288.1,234.39 -95.79,5.25 -205.23,-0.5 -289.3,-83.74 -74.58,-73.88 -93.86,-172.67 -102.38,-260.28 0.55,-1.14 1.24,-2.3 1.18,-2.39 217.82,-148.14 453.89,-270.49 702.08,-363.9 -0.49,42.65 0.39,85.03 1.24,126.38 2.5,121.42 4.87,236.1 -24.72,349.54zm222.27 -800.85c-465.42,49.42 -863.12,180.57 -1218.14,362.9 -660.48,339.21 -1194.07,1110.51 -1194.07,1110.51l683 0c17.69,-21.59 367.48,-418.72 383.98,-436.32 93.19,220.43 250.1,367.33 466.55,436.79 101.61,32.59 208.47,48.94 319.48,48.94 77.21,0 156.44,-7.89 237.32,-23.73 189.74,-37.09 341.8,-129.56 451.92,-274.79 106.53,-140.46 166.16,-309.4 177.2,-502.1 7.79,-135.12 11.66,-546.04 11.99,-548.18 1.16,-0.4 2.87,-0.88 5.23,-1.36 401.32,-81.89 820.31,-98.15 1245.23,-48.19 72.45,8.5 146.15,19.49 217.42,30.11 33.34,4.98 66.65,9.93 99.99,14.69 0,0 -740.43,-291.05 -1887.1,-169.27z"/>
  <path class="fil0" d="M8766.85 3522.56l-0.04 1331.63 152.54 -70.95c107.88,-50.08 209.8,-97.39 311.93,-146.84 27.12,-13.15 49.3,-49.57 49.46,-81.16 1.68,-301.94 2.06,-748.94 2.57,-1013.33l0.05 -19.35 -516.51 0z"/>
  <path class="fil1" d="M9995.29 3522.56c0.44,100.6 0.04,895.78 0.04,895.78 0,0 343.35,-53.42 456.57,-68.62 34.86,-4.64 58.19,-47.9 58.3,-74.5 0.79,-170 0.92,-716.96 0.95,-752.66l-515.86 0z"/>
  <path class="fil0" d="M5984.24 5028.87l0 938.45 632.83 0 0 -1361.64c-258.75,128 -500.99,265.96 -632.83,423.19z"/>
  <path class="fil1" d="M6616.73 3522.26l-634.72 0 -9.46 1319.61c131.85,-157.21 362.39,-306.88 621.15,-434.87l23.03 -884.74z"/>
  <path class="fil0" d="M10867.37 4869.98c-65.43,28.86 -117.7,74.71 -156.83,137.54 -53.59,86.54 -80.37,198.84 -80.37,336.89 0,115.36 17.49,212.23 52.53,290.52 53.56,116.43 143.72,186.96 270.43,211.67 36.07,7.24 88.09,10.84 156.09,10.84l360.06 0 0 -183.89 -315.25 0c-87.57,0 -151.99,-16.46 -193.17,-49.46 -58.72,-47.36 -88.09,-147.3 -88.09,-299.8 0,-113.29 19.06,-191.6 57.18,-234.89 45.31,-52.52 116.9,-78.78 214.82,-78.78l324.51 0 0 -183.91 -349.24 0c-103.04,0 -187.26,14.43 -252.67,43.27z"/>
  <path class="fil0" d="M12075 5696.71l-237.96 0c-41.23,0 -70.33,-5.12 -87.33,-15.44 -16.97,-10.28 -25.47,-27.28 -25.47,-51 0,-21.62 6.92,-38.61 20.83,-50.99 13.93,-12.35 32.71,-18.54 56.43,-18.54l35.54 0 237.96 0 0 135.97zm44.81 -573.31c-24.7,-7.18 -48.94,-12.1 -72.62,-14.65 -23.7,-2.56 -66.97,-3.87 -129.82,-3.87l-349.22 0 0 160.69 349.22 0c62.85,0 104.83,9.3 125.96,27.81 21.11,18.54 31.67,54.09 31.67,106.64l-253.42 0c-81.39,0 -139.64,6.18 -174.64,18.54 -40.17,14.45 -72.36,41.5 -96.55,81.15 -24.25,39.65 -36.35,84.72 -36.35,135.22 0,83.43 30.41,145.76 91.2,186.96 22.64,14.44 48.91,23.96 78.79,28.58 29.9,4.65 83.96,6.97 162.27,6.97l435.78 0 0 -423.41c6.18,-163.82 -47.9,-267.37 -162.27,-310.63z"/>
  <path class="fil0" d="M12881.73 5162.05c-22.64,-20.58 -51.15,-35.28 -85.58,-44.05 -34.44,-8.75 -82.95,-13.11 -145.66,-13.11l-305.17 0 0 752.56 207.09 0 0 -591.87 58.7 0c52.54,0 88.09,9.8 106.63,29.37 18.55,19.58 27.81,56.15 27.81,109.71l0 40.19 197.81 0 0 -72.64c0,-57.68 -4.64,-101.99 -13.9,-132.9 -9.23,-30.9 -25.14,-56.66 -47.73,-77.26z"/>
  <path class="fil0" d="M13989.31 5259.4c-21.66,15.47 -58.24,23.18 -109.74,23.18l-307.49 0 0 -271.95 307.49 0c39.14,0 67.46,3.06 85,9.25 49.47,17.51 74.18,57.72 74.18,120.53 0,56.66 -16.49,96.34 -49.44,118.99zm268.1 341.5c-5.67,-22.64 -14.68,-46.34 -27.04,-71.07 -16.49,-30.92 -35.04,-54.34 -55.64,-70.33 -20.62,-15.94 -50.99,-31.14 -91.17,-45.55 50.46,-16.46 91.17,-40.71 122.08,-72.65 49.45,-53.56 74.18,-129.28 74.18,-227.16 0,-48.41 -10.58,-92.97 -31.69,-133.67 -21.11,-40.69 -51.26,-73.4 -90.41,-98.13 -56.66,-37.09 -157.11,-55.64 -301.31,-55.64l-503.77 0 0 1030.74 219.44 0 0 -390.96 176.13 0c76.24,-1.03 134.47,9.25 174.63,30.91 31.93,18.54 55.88,43.79 71.86,75.72 15.96,31.92 26.51,77.8 31.7,137.53 8.22,74.16 15.95,123.12 23.15,146.8l245.71 0c-10.32,-29.86 -18.54,-81.91 -24.73,-156.07 -3.08,-44.28 -7.47,-77.78 -13.12,-100.47z"/>
  <path class="fil0" d="M14531.68 5134.23c-46.37,19.6 -86.03,52.55 -119.01,98.9 -48.44,68 -72.64,147.34 -72.64,237.99 0,140.09 45.84,245.71 137.56,316.78 32.94,24.72 68.23,42.49 105.83,53.31 37.61,10.82 86.28,16.23 146.04,16.23l275.08 0 0 -160.73 -251.88 0c-62.88,0 -108.2,-10.27 -136.01,-30.87 -27.79,-20.6 -43.78,-55.64 -47.91,-105.1l435.8 0 0 -160.73 -435.8 0c5.15,-51.51 19.05,-86.76 41.73,-105.84 22.65,-19.05 62.33,-28.6 118.99,-28.6l275.08 0 0 -160.69 -290.54 0c-75.21,0 -135.98,9.81 -182.32,29.35z"/>
  <path class="fil0" d="M15646.58 5118c-31.42,-8.75 -77.01,-13.11 -136.75,-13.11l-398.68 0 0 752.56 207.07 0 0 -591.87 179.24 0c38.12,0 65.4,8.27 81.9,24.73 16.46,16.49 24.73,43.27 24.73,80.36l0 486.78 207.08 0 0 -463.62c0,-104.03 -26.27,-180.27 -78.8,-228.69 -25.78,-22.66 -54.36,-38.37 -85.79,-47.14z"/>
  <path class="fil0" d="M16205.24 4826.7l-207.08 0 0 278.19 -131.35 0 0 160.69 131.35 0 0 309.07c0,101.99 19.06,174.63 57.18,217.9 38.07,43.26 101.99,64.9 191.6,64.9l149.9 0 0 -160.75 -81.9 0c-44.3,0 -75.21,-12.32 -92.73,-37.05 -11.33,-16.46 -16.97,-56.67 -16.97,-120.57l0 -273.5 191.6 0 0 -160.69 -191.6 0 0 -278.19z"/>
  <path class="fil0" d="M16994.85 5696.71l-237.96 0c-41.22,0 -70.31,-5.12 -87.32,-15.44 -16.98,-10.28 -25.48,-27.28 -25.48,-51 0,-21.62 6.92,-38.61 20.84,-50.99 13.92,-12.35 32.71,-18.54 56.42,-18.54l35.54 0 237.96 0 0 135.97zm44.81 -573.31c-24.69,-7.18 -48.94,-12.1 -72.62,-14.65 -23.7,-2.56 -66.97,-3.87 -129.82,-3.87l-349.22 0 0 160.69 349.22 0c62.85,0 104.83,9.3 125.97,27.81 21.1,18.54 31.66,54.09 31.66,106.64l-253.42 0c-81.39,0 -139.63,6.18 -174.64,18.54 -40.16,14.45 -72.36,41.5 -96.55,81.15 -24.25,39.65 -36.35,84.72 -36.35,135.22 0,83.43 30.41,145.76 91.2,186.96 22.65,14.44 48.91,23.96 78.8,28.58 29.89,4.65 83.96,6.97 162.27,6.97l435.77 0 0 -423.41c6.18,-163.82 -47.89,-267.37 -162.27,-310.63z"/>
  <polygon class="fil0" points="17333.25,5857.45 17540.33,5857.45 17540.33,4826.7 17333.25,4826.7 "/>
 </g>
</svg>
